<svg width="204" height="289" viewBox="0 0 204 289" fill="none" xmlns="http://www.w3.org/2000/svg">
<path fill-rule="evenodd" clip-rule="evenodd" d="M164.441 86.8914C165.566 89.0236 162.417 91.3117 160.658 89.728C150.48 80.5138 131.843 67.508 126.586 55.2162C119.495 38.6694 123.367 17.9482 109.335 4.5595C108.829 4.1268 108.509 3.516 108.442 2.85379C108.374 2.19158 108.564 1.52875 108.972 1.0028C109.38 0.476845 109.975 0.128125 110.633 0.0289354C111.291 -0.0702546 111.963 0.0876976 112.507 0.47006C128.014 11.3767 125.073 32.7315 132.255 48.2193C139.535 63.9009 156.46 71.8055 164.441 86.8914Z" fill="#191919"/>
<path fill-rule="evenodd" clip-rule="evenodd" d="M60.7306 62.7421C46.2655 59.8731 32.7359 53.4673 21.3493 44.0963C17.6949 40.8768 22.0727 38.2813 24.7391 40.0825C36.0633 48.0835 49.0235 53.4687 62.6831 55.8492C76.0154 57.8216 89.5884 57.473 102.802 54.8186C106.059 54.3837 105.988 59.1491 103.747 60.4918C93.5546 66.614 72.1715 65.262 60.7306 62.7421Z" fill="#191919"/>
<path fill-rule="evenodd" clip-rule="evenodd" d="M0.618168 55.372C-1.40526 53.1548 1.99864 50.2094 4.22063 51.8168C19.393 63.4584 36.8136 71.829 55.3832 76.4006C69.8876 79.7099 65.8644 86.4988 52.8444 83.8135C32.8953 80.0124 14.6343 70.0678 0.618168 55.372Z" fill="#191919"/>
<path fill-rule="evenodd" clip-rule="evenodd" d="M56.9718 107.178C39.7396 106.18 15.8744 98.2379 2.93958 86.901C2.48471 86.4863 2.19299 85.9228 2.11703 85.312C2.04107 84.7011 2.18587 84.0833 2.52532 83.5699C2.86477 83.0564 3.37651 82.6811 3.96826 82.5118C4.56001 82.3424 5.19281 82.39 5.75253 82.6461C25.4148 92.2811 35.9007 97.1742 57.8748 99.902C70.63 101.491 70.2565 107.948 56.9718 107.178Z" fill="#191919"/>
<path fill-rule="evenodd" clip-rule="evenodd" d="M133.135 129.237C136.6 131.601 132.662 137.42 129.13 135.331C110.494 124.358 89.2715 131.076 69.0277 131.043C49.2889 131.377 29.9519 125.447 13.7946 114.104C11.4639 112.359 14.031 108.87 16.4941 110C34.9937 119.343 55.5418 123.894 76.2563 123.237C95.389 122.079 116.124 117.654 133.135 129.237Z" fill="#191919"/>
<path fill-rule="evenodd" clip-rule="evenodd" d="M280.731 179.478C251.562 161.692 202.115 117.938 181.843 90.2578C161.471 111.038 143.347 133.909 127.773 158.492C164.677 212.916 223.12 271.629 259.745 288.686C296.226 228.902 280.731 179.478 280.731 179.478Z" fill="black"/>
</svg>
