<svg width="64" height="64" viewBox="0 0 64 64" fill="none" xmlns="http://www.w3.org/2000/svg">
<rect width="64" height="64" rx="32" fill="#B1E9F9"/>
<path d="M38.6503 24.59C36.8903 22.99 34.5603 22.03 32.0003 22.03C26.5003 22.03 22.0303 26.5 22.0303 32C22.0303 37.5 26.5003 41.97 32.0003 41.97C34.5603 41.97 36.8903 41.01 38.6503 39.41C40.6903 37.6 41.9703 34.94 41.9703 32C41.9703 29.06 40.6903 26.4 38.6503 24.59ZM31.9703 36.39C31.9503 38.04 30.7203 38.44 29.5703 37.98C27.2003 37.03 25.5303 34.71 25.5303 32C25.5303 29.29 27.2003 26.97 29.5703 26.01C30.7203 25.55 31.9503 25.96 31.9703 27.6V36.39Z" fill="black"/>
</svg>
