<svg width="23" height="22" viewBox="0 0 23 22" fill="none" xmlns="http://www.w3.org/2000/svg">
<path d="M11.5547 17.4166C15.0985 17.4166 17.9713 14.5438 17.9713 11C17.9713 7.45615 15.0985 4.58331 11.5547 4.58331C8.01084 4.58331 5.138 7.45615 5.138 11C5.138 14.5438 8.01084 17.4166 11.5547 17.4166Z" fill="black"/>
<path d="M11.5547 21.0467C11.0505 21.0467 10.638 20.6709 10.638 20.1667V20.0934C10.638 19.5892 11.0505 19.1767 11.5547 19.1767C12.0589 19.1767 12.4714 19.5892 12.4714 20.0934C12.4714 20.5975 12.0589 21.0467 11.5547 21.0467ZM18.0997 18.4617C17.8614 18.4617 17.6322 18.37 17.4489 18.1959L17.3297 18.0767C16.9722 17.7192 16.9722 17.1417 17.3297 16.7842C17.6872 16.4267 18.2647 16.4267 18.6222 16.7842L18.7414 16.9034C19.0989 17.2609 19.0989 17.8384 18.7414 18.1959C18.5672 18.37 18.338 18.4617 18.0997 18.4617ZM5.00971 18.4617C4.77137 18.4617 4.54221 18.37 4.35887 18.1959C4.00137 17.8384 4.00137 17.2609 4.35887 16.9034L4.47804 16.7842C4.83554 16.4267 5.41304 16.4267 5.77054 16.7842C6.12804 17.1417 6.12804 17.7192 5.77054 18.0767L5.65137 18.1959C5.47721 18.37 5.23887 18.4617 5.00971 18.4617ZM20.7214 11.9167H20.648C20.1439 11.9167 19.7314 11.5042 19.7314 11C19.7314 10.4959 20.1439 10.0834 20.648 10.0834C21.1522 10.0834 21.6014 10.4959 21.6014 11C21.6014 11.5042 21.2255 11.9167 20.7214 11.9167ZM2.46137 11.9167H2.38804C1.88387 11.9167 1.47137 11.5042 1.47137 11C1.47137 10.4959 1.88387 10.0834 2.38804 10.0834C2.89221 10.0834 3.34137 10.4959 3.34137 11C3.34137 11.5042 2.96554 11.9167 2.46137 11.9167ZM17.9805 5.49085C17.7422 5.49085 17.513 5.39919 17.3297 5.22502C16.9722 4.86752 16.9722 4.29002 17.3297 3.93252L17.4489 3.81335C17.8064 3.45585 18.3839 3.45585 18.7414 3.81335C19.0989 4.17085 19.0989 4.74835 18.7414 5.10585L18.6222 5.22502C18.448 5.39919 18.2189 5.49085 17.9805 5.49085ZM5.12887 5.49085C4.89054 5.49085 4.66137 5.39919 4.47804 5.22502L4.35887 5.09669C4.00137 4.73919 4.00137 4.16169 4.35887 3.80419C4.71637 3.44669 5.29387 3.44669 5.65137 3.80419L5.77054 3.92335C6.12804 4.28085 6.12804 4.85835 5.77054 5.21585C5.59637 5.39919 5.35804 5.49085 5.12887 5.49085ZM11.5547 2.78669C11.0505 2.78669 10.638 2.41085 10.638 1.90669V1.83335C10.638 1.32919 11.0505 0.916687 11.5547 0.916687C12.0589 0.916687 12.4714 1.32919 12.4714 1.83335C12.4714 2.33752 12.0589 2.78669 11.5547 2.78669Z" fill="black"/>
</svg>
