<svg width="64" height="64" viewBox="0 0 64 64" fill="none" xmlns="http://www.w3.org/2000/svg">
<rect width="64" height="64" rx="32" fill="#B1E9F9"/>
<path d="M39.8998 33.0693H24.0998C22.5998 33.0693 21.9998 33.7093 21.9998 35.2993V39.3393C21.9998 40.9293 22.5998 41.5693 24.0998 41.5693H39.8998C41.3998 41.5693 41.9998 40.9293 41.9998 39.3393V35.2993C41.9998 33.7093 41.3998 33.0693 39.8998 33.0693Z" fill="black"/>
<path d="M39.8998 21.5693H24.0998C22.5998 21.5693 21.9998 22.2093 21.9998 23.7993V27.8393C21.9998 29.4293 22.5998 30.0693 24.0998 30.0693H39.8998C41.3998 30.0693 41.9998 29.4293 41.9998 27.8393V23.7993C41.9998 22.2093 41.3998 21.5693 39.8998 21.5693Z" fill="black"/>
</svg>
