<svg width="23" height="22" viewBox="0 0 23 22" fill="none" xmlns="http://www.w3.org/2000/svg">
<path d="M19.9582 14.6026C19.8116 14.3551 19.3991 13.9701 18.3724 14.1534C17.8041 14.2543 17.2266 14.3001 16.6491 14.2726C14.5132 14.1809 12.5791 13.2001 11.2316 11.6876C10.0399 10.3584 9.30655 8.62592 9.29739 6.75592C9.29739 5.71092 9.49905 4.70259 9.91155 3.74925C10.3149 2.82342 10.0307 2.33759 9.82905 2.13592C9.61822 1.92509 9.12322 1.63175 8.15155 2.03509C4.40239 3.61175 2.08322 7.37009 2.35822 11.3943C2.63322 15.1801 5.29156 18.4159 8.81155 19.6351C9.65489 19.9284 10.5441 20.1026 11.4607 20.1393C11.6074 20.1484 11.7541 20.1576 11.9007 20.1576C14.9716 20.1576 17.8499 18.7093 19.6649 16.2434C20.2791 15.3909 20.1141 14.8501 19.9582 14.6026Z" fill="black"/>
</svg>
