<svg width="64" height="64" viewBox="0 0 64 64" fill="none" xmlns="http://www.w3.org/2000/svg">
<rect width="64" height="64" rx="32" fill="#B1E9F9"/>
<path d="M31.9998 22C26.4798 22 21.9998 26.48 21.9998 32C21.9998 37.52 26.4798 42 31.9998 42C37.5198 42 41.9998 37.52 41.9998 32C41.9998 26.48 37.5198 22 31.9998 22ZM35.5298 33.23L30.3498 36.82C29.5898 37.35 29.1498 37.04 29.3698 36.15L30.3198 32.31L28.6698 31.9C27.9198 31.72 27.8298 31.2 28.4598 30.76L33.6398 27.17C34.3998 26.64 34.8398 26.95 34.6198 27.84L33.6698 31.68L35.3198 32.09C36.0698 32.28 36.1598 32.79 35.5298 33.23Z" fill="black"/>
</svg>
