<svg width="64" height="64" viewBox="0 0 64 64" fill="none" xmlns="http://www.w3.org/2000/svg">
<rect width="64" height="64" rx="32" fill="#B1E9F9"/>
<path d="M32.998 36.15L32.998 38.85C32.998 41.1 33.898 42 36.148 42L38.848 42C41.098 42 41.998 41.1 41.998 38.85L41.998 36.15C41.998 33.9 41.098 33 38.848 33L36.148 33C33.898 33 32.998 33.9 32.998 36.15Z" fill="black"/>
<path d="M27.518 22L35.478 22C38.528 22 40.998 24.47 40.998 27.52L40.998 30.5C40.998 31.05 40.548 31.5 39.998 31.5L35.498 31.5C33.288 31.5 31.498 33.29 31.498 35.5L31.498 40C31.498 40.55 31.048 41 30.498 41L27.518 41C24.068 41 21.998 38.94 21.998 35.48L21.998 27.52C21.998 24.47 24.468 22 27.518 22Z" fill="black"/>
<path d="M24.8006 26.0001L29.6006 30.8" stroke="#B1E9F9" stroke-width="1.5" stroke-linecap="round" stroke-linejoin="round"/>
<path d="M25.5996 30.8L29.5996 30.8L29.5996 26.8" stroke="#B1E9F9" stroke-width="1.5" stroke-linecap="round" stroke-linejoin="round"/>
</svg>
